<?xml version="1.0" encoding="utf-8"?>
<svg viewBox="66.065 252.461 1259.945 338.581" xmlns="http://www.w3.org/2000/svg" xmlns:bx="https://boxy-svg.com">
  <defs>
    <style bx:fonts="Montserrat">@import url(https://fonts.googleapis.com/css2?family=Montserrat%3Aital%2Cwght%400%2C100..900%3B1%2C100..900&amp;display=swap);</style>
  </defs>
  <g transform="matrix(0.04087499901652336, 0, 0, -0.04087499901652336, 59.601741790771484, 646.691650390625)" fill="#000000" stroke="none" style="">
    <path d="M4790 8850 c-264 -26 -584 -96 -799 -177 -228 -85 -538 -243 -735 -376 -350 -234 -600 -491 -786 -807 -90 -153 -345 -637 -435 -825 -190 -397 -283 -808 -301 -1333 -8 -227 22 -632 47 -632 4 0 17 20 28 45 23 52 68 120 124 188 35 43 42 60 63 165 101 498 280 991 553 1517 395 761 823 1209 1446 1515 210 103 322 146 521 200 214 58 493 100 662 100 51 0 93 10 196 45 175 59 256 76 411 82 191 8 367 -20 592 -96 104 -34 94 -20 -56 80 -250 167 -533 264 -876 299 -147 15 -536 21 -655 10z m-372 -236 c24 -17 29 -46 10 -61 -7 -6 -67 -27 -133 -47 -566 -176 -1039 -475 -1420 -898 -50 -56 -96 -98 -106 -98 -10 0 -26 11 -35 25 -16 24 -15 26 20 70 77 93 252 269 360 359 340 286 659 462 1111 612 88 29 162 53 165 53 3 1 16 -6 28 -15z m-1870 -1554 c111 -68 27 -246 -93 -196 -93 39 -99 157 -11 200 42 21 65 20 104 -4z m-279 -506 c44 -37 58 -91 36 -137 -40 -85 -145 -97 -203 -22 -38 48 -23 132 30 169 36 25 101 20 137 -10z" style="fill: rgb(255, 255, 255);"/>
    <path d="M4949 8314 c-501 -57 -1040 -286 -1447 -614 -196 -157 -436 -429 -620 -702 -128 -190 -333 -581 -461 -880 -143 -335 -236 -624 -335 -1043 -7 -29 -6 -29 44 20 52 51 137 169 205 285 38 65 79 140 420 760 264 481 444 803 510 909 155 251 341 441 572 584 146 90 335 189 343 180 5 -4 95 -208 200 -453 106 -245 286 -657 400 -916 351 -793 389 -888 410 -1029 28 -182 -37 -413 -159 -572 -23 -29 -36 -53 -31 -53 5 0 49 12 97 26 118 34 306 44 407 20 71 -17 174 -66 199 -95 12 -12 16 -60 19 -218 2 -112 1 -203 -2 -203 -4 0 -15 9 -26 21 -54 60 -188 109 -299 109 -287 0 -491 -260 -420 -535 22 -83 60 -147 122 -206 141 -133 342 -154 536 -56 l87 45 0 -219 0 -218 -82 -26 c-323 -104 -655 -20 -892 225 -99 103 -165 222 -197 356 -18 77 -20 109 -16 239 7 217 43 324 166 494 90 124 105 170 106 316 0 146 1 144 -153 495 -64 146 -258 595 -431 999 -174 403 -320 734 -325 735 -4 0 -107 -192 -227 -429 -121 -236 -240 -467 -264 -512 -25 -46 -45 -85 -45 -88 0 -3 96 -5 213 -5 239 0 272 -6 392 -68 129 -68 235 -192 306 -361 l28 -66 -627 -5 -627 -5 -48 -90 c-112 -210 -178 -345 -173 -354 4 -5 -49 -9 -132 -10 -251 -3 -389 -32 -523 -111 -189 -112 -296 -282 -329 -521 -42 -300 135 -721 478 -1138 87 -106 269 -301 281 -301 3 0 5 313 3 695 l-2 695 -300 0 -300 0 25 65 c50 133 141 235 260 294 117 58 146 61 633 61 l442 0 0 -210 0 -210 -160 0 -160 0 0 -591 0 -590 123 -59 c383 -183 650 -245 1102 -257 560 -14 1128 94 1578 299 l67 31 0 793 0 794 215 0 215 0 2 -292 3 -293 303 -3 302 -2 0 333 0 333 58 12 c114 24 243 91 329 169 25 24 47 43 47 43 2 0 -4 -547 -7 -632 -2 -71 0 -84 11 -75 23 19 185 247 257 362 192 308 322 672 366 1029 17 140 6 431 -21 559 -44 207 -142 457 -242 616 -101 161 -287 363 -428 463 -69 49 -194 117 -297 161 -65 27 -80 51 -50 76 26 21 211 -54 341 -137 442 -283 745 -814 786 -1376 35 -495 -120 -1030 -436 -1503 -564 -843 -1248 -1373 -2144 -1661 -158 -51 -496 -126 -660 -146 -368 -46 -812 -38 -1100 20 -193 39 -473 135 -640 219 -38 19 -72 35 -75 35 -3 0 -4 -122 -3 -271 l2 -270 75 -63 c199 -166 560 -356 873 -460 223 -74 461 -122 738 -147 155 -14 590 -6 746 15 1045 138 1949 717 2516 1612 209 331 400 807 457 1143 19 114 28 241 16 229 -3 -3 -30 -101 -59 -219 -142 -563 -324 -948 -642 -1359 -132 -171 -429 -465 -594 -587 -248 -184 -463 -316 -656 -403 -105 -48 -129 -47 -129 5 0 26 12 34 180 120 338 172 581 344 837 593 500 487 783 1020 958 1805 51 228 70 391 75 622 5 230 -5 220 -25 -25 -39 -485 -161 -911 -373 -1298 -264 -483 -575 -857 -957 -1149 -327 -251 -708 -454 -1091 -583 -138 -46 -434 -120 -579 -144 -141 -23 -398 -46 -521 -46 -98 0 -107 2 -102 18 5 22 -43 41 -108 44 -24 0 55 5 176 9 311 10 569 48 884 130 317 82 577 189 891 367 269 152 486 318 710 542 436 435 758 989 894 1542 116 469 140 1015 62 1403 -39 193 -191 542 -343 787 -122 198 -308 409 -483 548 -300 238 -690 417 -1038 475 -157 26 -421 17 -562 -20 -111 -28 -258 -92 -334 -144 -170 -118 -290 -289 -343 -490 -30 -114 -36 -302 -14 -415 13 -65 13 -70 -4 -83 -32 -22 -41 -15 -53 40 -79 352 10 672 251 904 209 201 468 295 817 296 226 1 444 -39 656 -119 37 -14 68 -23 70 -21 2 2 -47 29 -109 60 -142 72 -320 131 -471 157 -145 25 -382 27 -508 5 -149 -26 -333 -100 -458 -185 -187 -127 -333 -338 -397 -576 -25 -92 -27 -113 -27 -304 -1 -237 8 -283 109 -580 91 -270 126 -432 124 -590 l0 -55 -33 100 c-56 168 -122 320 -228 525 -180 348 -202 398 -234 550 -21 103 -25 345 -6 435 53 250 160 447 335 618 59 57 83 87 71 86 -10 -1 -71 -7 -135 -15z m-360 -409 c-32 -66 -70 -158 -85 -205 -15 -47 -29 -88 -31 -93 -9 -16 -43 15 -43 39 0 65 114 330 178 414 l27 35 5 -35 c4 -28 -5 -58 -51 -155z m2099 34 c173 -19 381 -80 528 -155 459 -235 790 -652 964 -1215 71 -230 83 -324 84 -624 0 -228 -2 -276 -22 -388 -63 -352 -168 -663 -333 -987 -99 -195 -179 -322 -323 -514 -268 -356 -578 -640 -982 -898 -504 -322 -1171 -542 -1801 -593 -80 -7 -83 -6 -83 14 0 12 -6 21 -12 21 -9 0 -8 4 2 10 11 7 0 10 -40 11 -38 1 -23 4 50 10 970 77 1819 452 2471 1091 428 419 751 973 903 1548 38 142 74 349 87 500 27 315 -24 643 -148 955 -221 555 -664 975 -1170 1105 -334 87 -634 50 -905 -110 -67 -40 -208 -163 -208 -181 0 -5 191 -9 434 -9 487 0 539 -5 705 -66 255 -95 461 -259 615 -492 134 -203 196 -411 196 -656 0 -543 -332 -1002 -843 -1165 -130 -41 -249 -52 -532 -49 l-230 3 -3 266 -2 266 252 5 c239 5 258 7 335 32 206 66 359 233 419 456 24 89 25 281 1 370 -60 222 -207 378 -432 453 -55 19 -91 21 -417 24 l-358 4 0 -940 0 -941 -257 2 -258 3 0 955 c1 929 2 958 22 1050 29 135 76 248 144 351 56 83 170 209 189 209 5 0 54 29 109 65 275 181 523 240 849 204z m-107 -1275 c87 -26 149 -62 209 -123 61 -61 140 -189 140 -226 0 -51 -69 -75 -105 -35 -13 14 -16 29 -12 56 12 73 -64 169 -181 226 -62 31 -74 33 -167 33 -89 0 -106 -3 -150 -27 -54 -28 -91 -64 -120 -115 -17 -29 -17 -33 -2 -66 22 -46 21 -53 -8 -82 -30 -31 -56 -32 -92 -1 -50 43 -31 123 55 232 76 96 175 143 303 144 41 0 100 -7 130 -16z m-5 -335 c45 -43 39 -128 -13 -169 -40 -31 -107 -27 -143 9 -36 36 -46 72 -31 121 23 78 123 99 187 39z m1309 -636 c-44 -254 -140 -511 -270 -718 -70 -112 -89 -128 -124 -106 -12 7 -7 19 22 63 135 205 252 492 297 731 l12 67 35 0 c34 0 34 0 28 -37z m-3595 -468 c101 -52 93 -199 -14 -235 -60 -19 -132 13 -156 70 l-12 30 -517 1 c-314 1 -498 5 -471 10 99 18 105 19 91 10 -8 -5 93 -9 250 -10 176 -1 259 2 249 9 -8 5 -23 10 -32 10 -10 0 -18 6 -18 14 0 8 -12 17 -27 19 -16 2 85 5 223 6 243 1 252 2 270 22 49 56 110 72 164 44z m-1032 -72 c-10 -2 -26 -2 -35 0 -10 3 -2 5 17 5 19 0 27 -2 18 -5z m-138 -22 c0 -11 -35 -21 -73 -21 -24 0 -26 2 -15 15 14 15 88 21 88 6z m-127 -28 c-7 -2 -19 -2 -25 0 -7 3 -2 5 12 5 14 0 19 -2 13 -5z m1417 -473 l0 -210 -210 0 -210 0 0 -95 0 -95 165 0 165 0 0 -210 0 -210 -164 0 -163 0 -7 -31 c-9 -45 2 -80 37 -117 42 -44 79 -52 245 -52 l142 0 0 -216 0 -216 -217 4 c-195 3 -225 6 -281 26 -131 47 -245 140 -304 249 -57 105 -58 113 -58 775 l0 608 430 0 430 0 0 -210z m-1146 -675 c3 -38 6 -72 7 -75 2 -3 6 42 9 100 3 58 6 -55 6 -250 0 -195 -2 -307 -3 -247 -2 61 -8 107 -14 107 -5 0 -7 -12 -4 -27 l5 -28 -14 30 c-14 28 -15 22 -18 -95 -2 -69 -4 46 -5 255 -1 334 0 375 12 340 8 -21 16 -71 19 -110z m1069 -1592 c-7 -2 -19 -2 -25 0 -7 3 -2 5 12 5 14 0 19 -2 13 -5z m100 -10 c-13 -2 -35 -2 -50 0 -16 2 -5 4 22 4 28 0 40 -2 28 -4z m125 -10 c-16 -2 -40 -2 -55 0 -16 2 -3 4 27 4 30 0 43 -2 28 -4z m45 -70 c-18 -2 -48 -2 -65 0 -18 2 -4 4 32 4 36 0 50 -2 33 -4z m95 0 c-10 -2 -28 -2 -40 0 -13 2 -5 4 17 4 22 1 32 -1 23 -4z" style="fill: rgb(255, 255, 255);"/>
    <path d="M4735 2610 c4 -6 11 -8 16 -5 14 9 11 15 -7 15 -8 0 -12 -5 -9 -10z" style="fill: rgb(255, 255, 255);"/>
    <path d="M3243 3915 c0 -22 2 -30 4 -17 2 12 2 30 0 40 -3 9 -5 -1 -4 -23z" style="fill: rgb(255, 255, 255);"/>
    <path d="M6338 3648 c-2 -95 -3 -174 -2 -175 0 -2 57 35 126 81 112 73 229 161 323 240 l30 25 -237 1 -237 0 -3 -172z" style="fill: rgb(255, 255, 255);"/>
    <path d="M4853 2323 c9 -2 23 -2 30 0 6 3 -1 5 -18 5 -16 0 -22 -2 -12 -5z" style="fill: rgb(255, 255, 255);"/>
    <path d="M4835 2300 c3 -5 8 -10 11 -10 2 0 4 5 4 10 0 6 -5 10 -11 10 -5 0 -7 -4 -4 -10z" style="fill: rgb(255, 255, 255);"/>
  </g>
  <text style="fill: rgb(255, 255, 255); font-family: Montserrat; font-size: 153px; letter-spacing: 8.3px; white-space: pre;" x="547.691" y="474.848">AD Tech</text>
</svg>