<?xml version="1.0" standalone="no"?>
<!DOCTYPE svg PUBLIC "-//W3C//DTD SVG 20010904//EN"
 "http://www.w3.org/TR/2001/REC-SVG-20010904/DTD/svg10.dtd">
<svg version="1.0" xmlns="http://www.w3.org/2000/svg"
 width="750.000000pt" height="125.000000pt" viewBox="0 0 750.000000 125.000000"
 preserveAspectRatio="xMidYMid meet">

<g transform="translate(0.000000,125.000000) scale(0.100000,-0.100000)"
fill="#000000" stroke="none">
<path d="M553 1165 c-140 -38 -244 -119 -315 -247 -68 -120 -88 -186 -95 -302
-8 -134 10 -126 63 30 46 138 76 198 133 274 73 97 174 161 286 180 33 6 83
16 112 22 28 6 76 8 105 5 48 -6 51 -5 33 9 -56 42 -218 57 -322 29z m7 -37
c-93 -39 -152 -73 -197 -113 -54 -47 -76 -50 -25 -3 68 63 188 128 232 127 8
0 4 -5 -10 -11z m-280 -253 c0 -8 -7 -15 -15 -15 -8 0 -15 7 -15 15 0 8 7 15
15 15 8 0 15 -7 15 -15z m-52 -82 c-4 -22 -22 -20 -26 1 -2 10 3 16 13 16 10
0 15 -7 13 -17z"/>
<path d="M575 1072 c-126 -43 -226 -138 -294 -276 -41 -84 -87 -214 -78 -222
6 -6 49 65 132 216 32 58 72 120 89 139 34 36 105 85 113 78 17 -17 163 -373
163 -398 0 -16 -7 -43 -15 -59 l-14 -28 38 5 c52 7 81 -10 81 -47 0 -28 -2
-29 -26 -20 -78 30 -134 -66 -70 -119 10 -9 30 -12 56 -8 39 5 40 4 40 -24 0
-59 -94 -62 -156 -4 -31 29 -34 38 -34 86 0 36 7 65 20 87 11 18 20 42 20 54
0 30 -142 358 -152 352 -8 -5 -78 -138 -78 -149 0 -3 14 -5 30 -5 50 0 110
-40 110 -74 0 -3 -44 -7 -97 -8 l-98 -3 -20 -36 c-17 -33 -24 -37 -69 -42
-131 -12 -141 -154 -21 -292 l34 -40 1 113 0 112 -45 0 c-50 0 -54 7 -26 41
17 21 29 24 105 28 l86 3 0 -36 c0 -32 -3 -36 -25 -36 l-26 0 3 -97 3 -98 65
-22 c103 -35 275 -27 374 18 l26 12 0 129 0 128 35 0 35 0 0 -51 0 -50 48 3
47 3 5 53 c4 45 9 54 34 67 16 9 30 14 31 13 1 -2 5 -29 7 -61 l5 -58 -73 -68
c-78 -75 -177 -130 -279 -156 -85 -21 -226 -19 -295 5 -30 11 -58 19 -62 20
-5 0 -8 -18 -8 -40 0 -35 5 -43 41 -70 82 -59 140 -74 284 -74 113 0 138 3
190 23 82 32 186 103 235 159 47 54 118 191 125 242 4 25 0 20 -13 -20 -26
-76 -54 -128 -101 -188 -43 -54 -172 -152 -200 -152 -9 0 9 15 39 32 118 69
235 223 255 338 5 27 0 22 -19 -24 -86 -202 -269 -335 -496 -360 -39 -5 -51
-3 -40 4 8 5 32 10 52 10 57 0 188 46 254 88 115 75 205 199 239 329 16 61 19
204 6 238 -5 12 -6 -8 -4 -46 15 -196 -118 -410 -318 -508 -78 -38 -217 -77
-243 -68 -6 3 7 7 29 11 83 14 205 59 263 97 165 108 280 321 257 479 -23 157
-150 279 -281 268 -29 -3 -65 -13 -81 -24 l-28 -19 85 -8 c107 -11 131 -20
174 -67 59 -66 69 -136 32 -216 -35 -75 -101 -114 -192 -114 l-44 0 0 45 0 45
40 0 c47 0 95 22 110 49 5 11 10 40 10 64 0 75 -56 113 -155 105 l-40 -3 -3
-152 -3 -153 -39 0 -40 0 0 159 c0 89 5 172 11 188 36 97 170 142 277 93 23
-10 42 -17 42 -14 0 3 -30 19 -67 36 -52 25 -80 32 -127 32 -104 -1 -155 -42
-168 -138 l-7 -51 3 59 c3 54 6 62 39 92 43 39 104 58 166 50 39 -5 42 -4 21
5 -14 6 -54 9 -90 7 -77 -4 -120 -29 -150 -88 -25 -49 -25 -98 0 -178 30 -95
24 -96 -20 -3 -54 113 -53 189 2 249 l21 22 -29 0 c-16 -1 -52 -8 -79 -18z
m21 -63 c-9 -19 -15 -29 -16 -22 0 15 22 64 27 60 2 -2 -3 -19 -11 -38z m466
-52 c27 -21 55 -56 75 -96 28 -53 33 -73 33 -132 0 -77 -21 -150 -64 -218 -40
-63 -42 -44 -2 23 19 31 40 80 46 108 32 132 -26 274 -135 331 -19 10 -24 16
-13 17 9 0 36 -15 60 -33z m-108 -148 c14 -11 26 -28 26 -37 -1 -13 -6 -10
-21 11 -24 31 -69 37 -90 10 -8 -9 -13 -18 -11 -20 1 -1 -1 -2 -5 0 -22 7 28
57 57 57 9 0 29 -9 44 -21z m-32 -61 c-15 -15 -26 -4 -18 18 5 13 9 15 18 6 9
-9 9 -15 0 -24z m206 -115 c-12 -44 -38 -97 -44 -91 -2 3 5 23 16 46 11 22 20
47 20 55 0 12 9 27 16 27 1 0 -2 -17 -8 -37z m-564 -52 c3 -5 -1 -14 -8 -20
-10 -8 -16 -9 -21 -1 -3 5 -23 11 -43 11 l-37 2 40 7 c60 11 63 11 69 1z m6
-86 c0 -32 -2 -35 -30 -35 -20 0 -30 -5 -30 -15 0 -9 9 -15 25 -15 22 0 25 -4
25 -35 0 -31 -3 -35 -26 -35 -34 0 -26 -24 9 -28 23 -3 27 -8 27 -38 0 -31 -2
-34 -30 -34 -37 0 -85 23 -94 45 -3 9 -6 64 -6 121 l0 104 65 0 65 0 0 -35z
m-183 -152 c-3 -10 -5 -4 -5 12 0 17 2 24 5 18 2 -7 2 -21 0 -30z"/>
<path d="M2150 952 l-55 -3 -72 -177 c-67 -166 -142 -359 -184 -479 l-18 -53
69 0 c62 0 69 2 76 23 3 12 15 46 26 75 l19 52 144 0 c100 0 146 -4 152 -12 4
-7 19 -39 33 -72 l25 -61 68 -3 c37 -2 67 0 67 5 0 19 -272 692 -283 700 -7 4
-37 7 -67 5z m65 -305 c36 -91 49 -136 42 -144 -6 -9 -38 -13 -92 -13 -86 0
-115 5 -115 21 0 19 103 279 108 274 3 -3 29 -65 57 -138z"/>
<path d="M6311 953 l-44 -4 6 -151 c4 -83 7 -243 7 -355 l0 -203 60 0 60 0 0
165 0 166 27 25 c38 35 94 50 132 35 16 -7 33 -20 37 -29 4 -10 9 -95 12 -190
l4 -173 56 3 57 3 -2 193 c-3 209 -11 247 -57 277 -60 40 -150 31 -227 -21
l-51 -36 7 151 7 151 -23 -2 c-13 -1 -44 -3 -68 -5z"/>
<path d="M2880 595 l0 -357 198 4 c228 4 245 9 325 98 163 181 107 500 -103
582 -47 18 -81 22 -237 26 l-183 4 0 -357z m328 243 c63 -16 133 -85 151 -151
33 -115 -10 -261 -93 -316 -33 -22 -52 -26 -137 -29 -69 -3 -104 -1 -114 8
-13 10 -15 51 -15 246 0 211 2 234 18 243 23 14 133 14 190 -1z"/>
<path d="M3865 940 c-2 -3 -6 -27 -10 -54 l-8 -49 96 7 96 6 7 -37 c4 -21 4
-158 0 -305 l-7 -268 72 0 71 0 -7 233 c-4 129 -4 266 0 306 l7 73 83 -7 c46
-4 87 -5 92 -2 4 3 7 27 5 54 l-4 48 -245 0 c-135 0 -246 -2 -248 -5z"/>
<path d="M4872 727 c-87 -32 -151 -120 -159 -220 -6 -76 8 -131 46 -184 77
-106 274 -123 381 -34 l34 28 -23 36 -23 37 -41 -24 c-83 -48 -164 -46 -222 6
-52 45 -46 55 33 63 178 16 245 25 259 37 11 9 14 26 11 65 -12 143 -161 239
-296 190z m151 -127 c47 -52 38 -66 -48 -79 -93 -14 -142 -14 -150 -1 -10 17
27 81 59 102 45 28 103 19 139 -22z"/>
<path d="M5670 720 c-89 -41 -139 -113 -147 -209 -10 -110 40 -203 136 -253
62 -32 112 -36 190 -12 l53 15 -6 41 c-9 57 -12 59 -53 41 -101 -42 -203 29
-203 142 0 113 98 182 199 141 44 -17 44 -17 59 37 10 36 9 38 -21 54 -52 26
-154 28 -207 3z"/>
<path d="M1222 610 c0 -14 2 -19 5 -12 2 6 2 18 0 25 -3 6 -5 1 -5 -13z"/>
<path d="M1211 554 c0 -11 3 -14 6 -6 3 7 2 16 -1 19 -3 4 -6 -2 -5 -13z"/>
<path d="M890 334 l0 -25 30 21 c17 12 30 23 30 26 0 2 -13 4 -30 4 -26 0 -30
-4 -30 -26z"/>
</g>
</svg>
